<?xml version="1.0" standalone="no"?>
<!DOCTYPE svg PUBLIC "-//W3C//DTD SVG 20010904//EN"
 "http://www.w3.org/TR/2001/REC-SVG-20010904/DTD/svg10.dtd">
<svg version="1.0" xmlns="http://www.w3.org/2000/svg"
 width="430.000000pt" height="430.000000pt" viewBox="0 0 430.000000 430.000000"
 preserveAspectRatio="xMidYMid meet">
<metadata>
Created by potrace 1.14, written by Peter Selinger 2001-2017
</metadata>
<g transform="translate(0.000000,430.000000) scale(0.100000,-0.100000)"
fill="#000000" stroke="none">
<path d="M1293 3670 c-119 -25 -204 -122 -219 -250 -7 -67 14 -168 52 -243 32
-62 121 -177 138 -177 6 0 29 23 51 50 125 158 346 219 542 151 137 -48 223
-125 284 -256 64 -135 47 -223 -68 -360 -80 -96 -144 -225 -179 -361 -57 -227
-13 -369 142 -460 40 -23 62 -29 133 -32 110 -5 176 18 243 84 77 76 93 119
92 249 0 96 -4 122 -33 210 -19 55 -45 123 -58 150 -30 59 -102 162 -133 190
-12 11 -34 43 -48 70 -22 41 -27 64 -27 125 0 64 5 84 32 140 63 129 161 212
298 256 201 64 403 0 543 -171 l32 -40 53 56 c62 66 121 178 138 266 28 147
-40 287 -164 337 -142 58 -345 -3 -490 -149 l-72 -73 -75 19 c-41 11 -132 25
-202 31 -142 13 -279 3 -419 -30 l-77 -19 -63 64 c-130 132 -310 201 -446 173z
m178 -116 c72 -23 219 -127 219 -155 0 -5 -31 -24 -69 -43 l-68 -35 -29 30
c-44 46 -158 99 -213 99 -48 0 -107 -28 -117 -55 -12 -30 -25 -14 -18 23 24
134 136 186 295 136z m1613 11 c29 -6 82 -48 98 -79 15 -27 28 -96 18 -96 -4
0 -13 7 -21 16 -58 71 -199 52 -305 -40 l-51 -45 -67 35 c-36 19 -66 39 -66
44 0 4 24 30 53 56 60 54 155 102 224 113 46 8 63 7 117 -4z m-943 -172 c42
-15 50 -14 100 2 58 20 156 23 185 7 16 -9 12 -11 -21 -17 -65 -10 -117 -26
-167 -51 l-47 -24 -64 31 c-36 16 -82 32 -103 35 -96 13 -104 21 -37 34 46 9
92 4 154 -17z m219 -1125 c81 -41 114 -92 119 -186 3 -66 0 -79 -28 -137 -32
-64 -71 -104 -141 -141 -26 -14 -56 -19 -120 -19 -76 0 -91 3 -139 30 -98 54
-151 144 -151 258 0 106 49 173 157 213 26 9 72 13 143 11 91 -2 112 -6 160
-29z"/>
<path d="M2093 2241 c-87 -22 -146 -96 -141 -176 3 -38 5 -40 33 -37 17 1 42
7 57 13 35 14 68 -3 68 -35 0 -37 -25 -52 -64 -38 -18 7 -42 12 -54 12 -21 0
-22 -1 -8 -27 31 -59 99 -105 173 -118 85 -14 200 42 239 116 14 28 13 29 -8
29 -12 0 -36 -5 -54 -12 -39 -14 -64 1 -64 38 0 36 30 47 81 29 23 -9 51 -13
61 -9 26 8 24 69 -4 124 -33 64 -93 93 -201 96 -45 2 -96 -1 -114 -5z"/>
<path d="M1583 3075 c-200 -56 -299 -266 -207 -435 33 -60 75 -99 147 -137 48
-26 61 -28 162 -28 94 0 117 3 156 23 198 97 249 322 108 477 -88 96 -236 137
-366 100z m297 -86 c78 -40 118 -99 127 -185 14 -133 -94 -247 -234 -246 -169
1 -274 177 -197 330 56 113 193 159 304 101z"/>
<path d="M1700 2918 c-55 -38 -75 -73 -75 -133 0 -146 173 -209 275 -101 36
40 41 137 8 186 -46 69 -144 91 -208 48z m90 -133 c0 -25 -4 -45 -10 -45 -5 0
-10 20 -10 45 0 25 5 45 10 45 6 0 10 -20 10 -45z"/>
<path d="M2607 3080 c-63 -16 -131 -56 -174 -103 -66 -72 -78 -100 -78 -197 0
-103 24 -159 98 -226 64 -57 140 -85 232 -85 90 0 115 6 189 44 99 52 166 161
166 268 0 103 -79 217 -184 269 -70 35 -178 47 -249 30z m95 -91 c178 -90 166
-344 -19 -418 -20 -8 -59 -12 -102 -9 -59 3 -77 9 -113 35 -26 18 -54 52 -70
83 -104 196 106 409 304 309z"/>
<path d="M2520 2918 c-55 -38 -75 -73 -75 -133 0 -148 181 -211 278 -96 61 73
34 190 -55 237 -42 22 -110 18 -148 -8z m90 -133 c0 -25 -4 -45 -10 -45 -5 0
-10 20 -10 45 0 25 5 45 10 45 6 0 10 -20 10 -45z"/>
<path d="M910 2602 c0 -15 12 -49 26 -75 18 -34 23 -57 19 -76 -5 -22 1 -36
29 -70 34 -41 38 -49 50 -103 4 -18 21 -37 44 -52 21 -13 46 -36 55 -50 10
-14 33 -34 53 -44 l36 -18 -39 -27 c-22 -15 -47 -27 -56 -27 -9 0 -32 -15 -51
-32 -18 -18 -45 -41 -60 -51 -14 -10 -26 -22 -26 -26 0 -11 47 -31 74 -31 13
0 29 -6 35 -14 6 -7 37 -17 69 -20 73 -9 87 -9 149 2 50 8 51 8 43 -13 -12
-31 10 -69 41 -73 32 -4 59 21 59 54 0 28 7 29 34 9 33 -25 125 -19 168 10 67
45 87 152 40 215 -46 61 -137 90 -193 60 -13 -7 -19 -7 -20 0 -1 5 -3 15 -4
20 -1 6 -3 32 -4 60 -1 42 -6 54 -31 77 -16 14 -30 33 -30 41 0 7 -21 35 -47
61 -27 27 -57 60 -69 74 -13 15 -37 28 -59 33 -21 4 -59 22 -83 41 -35 27 -51
33 -73 28 -18 -4 -41 1 -68 14 -22 12 -56 23 -76 26 -33 4 -35 2 -35 -23z
m320 -282 c78 -81 173 -160 194 -160 36 0 84 -45 92 -87 20 -105 -105 -172
-187 -99 -48 42 -43 128 12 168 l30 22 -98 100 c-54 55 -87 91 -73 81 14 -11
27 -22 30 -25z m213 -413 c3 -9 -5 -12 -32 -8 -30 3 -32 5 -16 12 30 11 42 10
48 -4z"/>
<path d="M1367 2106 c-8 -19 15 -37 32 -26 17 10 7 40 -13 40 -7 0 -16 -6 -19
-14z"/>
<path d="M3351 2602 c-28 -15 -53 -21 -68 -17 -25 6 -56 -6 -89 -37 -12 -10
-43 -24 -70 -31 -40 -10 -53 -20 -76 -54 -16 -23 -37 -45 -48 -48 -11 -4 -30
-25 -41 -48 -12 -23 -33 -51 -47 -63 -22 -18 -27 -31 -30 -88 l-4 -66 -53 6
c-109 13 -176 -40 -182 -144 -6 -85 38 -144 120 -161 40 -9 106 5 131 27 18
16 19 16 13 -9 -14 -54 49 -92 86 -51 36 40 12 86 -45 84 -22 0 -28 2 -20 10
7 7 25 6 59 -5 92 -29 143 -38 163 -27 10 5 39 10 63 10 27 0 49 6 57 15 7 8
25 15 39 15 36 0 66 23 58 44 -4 9 -22 24 -42 33 -19 9 -37 24 -40 33 -3 9
-23 22 -44 29 -21 6 -44 18 -51 26 -7 8 -19 15 -26 15 -22 0 -16 20 9 29 12 5
55 40 95 79 51 49 72 77 72 95 0 13 16 44 35 68 27 34 35 53 35 84 0 22 7 50
15 62 9 12 19 42 24 66 l8 44 -31 -1 c-17 -1 -51 -11 -75 -24z m-167 -243
c-10 -11 -56 -58 -101 -102 -46 -45 -83 -85 -83 -88 0 -4 16 -23 35 -42 30
-30 35 -42 35 -80 0 -38 -5 -49 -30 -70 -16 -14 -39 -29 -51 -32 -63 -20 -139
35 -139 101 0 65 33 103 100 118 14 3 75 52 135 110 105 100 140 131 99 85z"/>
<path d="M2963 2104 c-8 -20 8 -36 26 -25 15 10 8 41 -9 41 -6 0 -13 -7 -17
-16z"/>
<path d="M1587 2309 c104 -107 156 -179 207 -287 16 -34 34 -62 39 -62 5 0 7
6 4 14 -3 7 -9 49 -12 93 -8 90 6 198 37 281 11 29 18 55 16 57 -2 2 -32 -3
-68 -10 -102 -22 -199 -18 -305 11 -11 3 26 -41 82 -97z"/>
<path d="M2503 2394 c53 -177 63 -252 48 -359 -6 -38 -9 -71 -7 -73 2 -1 34
52 72 120 60 106 83 136 174 226 58 57 96 101 85 98 -124 -34 -244 -34 -359 1
-15 4 -18 1 -13 -13z"/>
<path d="M1918 1700 c-66 -12 -102 -60 -116 -152 -6 -44 -11 -53 -32 -58 -31
-7 -33 -34 -2 -38 l23 -4 -3 -199 -3 -199 115 0 115 0 -3 199 -3 200 28 3 c41
4 45 38 4 38 -60 0 -130 21 -156 48 -33 33 -32 85 2 90 18 3 24 -4 34 -38 7
-22 19 -46 27 -52 19 -17 78 -13 107 6 37 25 35 87 -4 127 -16 16 -38 29 -49
29 -11 0 -26 2 -34 4 -7 2 -30 0 -50 -4z"/>
<path d="M835 1660 c-71 -28 -119 -71 -152 -138 -24 -50 -28 -68 -28 -147 0
-120 23 -182 91 -250 60 -60 124 -85 216 -85 114 0 207 49 248 131 27 52 27
115 -1 129 -35 19 -62 4 -99 -56 -56 -93 -111 -99 -151 -17 -21 43 -24 66 -27
209 -4 164 2 204 33 204 25 0 35 -36 35 -130 0 -84 2 -93 25 -114 51 -48 143
-40 189 15 61 73 3 195 -119 250 -56 26 -192 25 -260 -1z"/>
<path d="M1378 1514 c-80 -25 -114 -99 -66 -144 50 -46 131 -12 145 63 9 45
32 59 58 37 41 -34 -1 -113 -77 -145 -135 -57 -147 -64 -162 -94 -18 -35 -21
-90 -5 -123 20 -44 59 -63 126 -63 54 0 66 3 89 27 l27 26 18 -21 c15 -19 29
-22 109 -26 l93 -3 -7 158 c-4 88 -12 175 -18 194 -15 50 -51 94 -91 114 -44
20 -173 21 -239 0z m134 -250 c6 -50 -5 -117 -19 -121 -15 -5 -33 37 -33 77 0
73 44 111 52 44z"/>
<path d="M2205 1506 c-97 -45 -141 -128 -133 -252 4 -62 10 -82 34 -117 76
-109 268 -132 376 -44 44 35 55 100 18 112 -26 8 -42 -2 -73 -46 -24 -34 -32
-40 -59 -37 -36 3 -65 37 -74 86 l-6 32 78 0 c131 0 183 42 169 136 -8 53 -50
106 -106 135 -56 28 -159 26 -224 -5z m119 -42 c3 -9 6 -46 6 -84 0 -81 -6
-100 -31 -100 -17 0 -19 8 -19 93 0 52 3 97 7 100 11 12 31 7 37 -9z"/>
<path d="M2665 1525 c-5 -2 -28 -9 -50 -14 l-40 -10 0 -193 c0 -106 -3 -208
-7 -225 l-7 -33 90 0 c82 0 92 2 114 25 24 23 25 29 25 167 0 146 6 175 33
165 12 -5 16 -34 19 -160 4 -198 3 -197 130 -197 l88 0 0 176 c0 197 -9 243
-53 280 -38 32 -110 33 -161 3 -20 -12 -36 -25 -36 -30 0 -20 -16 -7 -27 21
-10 28 -15 30 -60 29 -26 0 -52 -2 -58 -4z"/>
<path d="M3215 1514 c-59 -22 -85 -51 -85 -95 0 -65 62 -89 127 -50 24 15 34
30 40 63 7 33 14 44 30 46 48 7 54 -75 9 -117 -12 -12 -61 -37 -107 -56 -100
-42 -129 -71 -129 -133 0 -83 48 -132 130 -132 43 0 88 18 109 43 10 13 15 12
36 -9 22 -22 33 -24 109 -24 l85 0 -5 148 c-8 223 -26 276 -108 313 -50 23
-182 25 -241 3z m135 -288 c0 -79 -13 -103 -37 -71 -26 37 -10 145 22 145 12
0 15 -14 15 -74z"/>
</g>
</svg>
