<svg width="70" height="20" viewBox="0 0 70 20" fill="none" xmlns="http://www.w3.org/2000/svg">
<path fill-rule="evenodd" clip-rule="evenodd" d="M46.9381 3.69401V5.70673H43.5823V11.4639C43.5823 12.6864 44.2833 13.2989 45.439 13.2989C46.0666 13.2917 46.6918 13.2004 47.2957 13.0299L47.6035 15.0666C46.8007 15.3308 45.96 15.4605 45.1145 15.4509C42.7274 15.4509 41.2378 14.1011 41.2378 11.7593V5.70914H39.2082V3.69641H41.2733V0H43.561V3.69401H46.9381Z" fill="#5A2989"/>
<path fill-rule="evenodd" clip-rule="evenodd" d="M34.0478 8.26013C32.615 7.9599 32.0822 7.59963 32.0822 6.88148C32.0822 6.03124 32.9347 5.53166 34.6541 5.53166C35.8405 5.53166 37.0152 5.75743 38.1164 6.20417L38.3651 4.1386C37.1431 3.66544 35.8453 3.43006 34.5357 3.44447C31.6891 3.44447 29.7921 4.88316 29.7921 6.83585C29.7921 8.60839 30.8531 9.76847 32.8613 10.1792L34.5451 10.5275C36.0158 10.8277 36.6339 11.248 36.6339 12.0262C36.6339 12.9149 35.8382 13.3496 34.1331 13.3496C32.795 13.3328 31.4735 13.0494 30.2421 12.5162L29.9579 14.5721C30.9431 15.1125 32.5535 15.432 34.2846 15.432C37.046 15.432 38.9192 14.3175 38.9192 11.9902C38.9192 9.98944 37.6854 9.00469 35.374 8.52673L34.0478 8.25773V8.26013Z" fill="#5A2989"/>
<path fill-rule="evenodd" clip-rule="evenodd" d="M53.3064 13.2127C52.8138 13.2271 52.3259 13.1383 51.8688 12.9533C51.4118 12.7684 50.9973 12.4898 50.6492 12.1367C50.3011 11.7836 50.0287 11.3609 49.8464 10.895C49.664 10.429 49.5788 9.93182 49.593 9.43224C49.5954 8.68768 49.8156 7.96233 50.2229 7.34506C50.6303 6.72779 51.2081 6.24742 51.8854 5.96401C52.5604 5.68059 53.304 5.60614 54.0216 5.75265C54.7391 5.89916 55.3975 6.25703 55.9138 6.78303C56.43 7.30903 56.7829 7.97914 56.925 8.70689C57.0671 9.43705 56.996 10.1912 56.7166 10.8781C56.4371 11.5651 55.9659 12.1535 55.3596 12.569C54.7533 12.9845 54.0405 13.2055 53.3087 13.2103L53.3064 13.2127ZM53.3064 3.4541C49.844 3.4541 47.2556 6.0793 47.2556 9.44905C47.2556 12.8188 49.8417 15.444 53.304 15.444C56.7663 15.444 59.3477 12.8188 59.3477 9.44905C59.3477 6.0793 56.7663 3.4541 53.3064 3.4541Z" fill="#5A2989"/>
<path fill-rule="evenodd" clip-rule="evenodd" d="M61.3015 3.69421L64.2523 7.74609L67.2031 3.69421H69.9053L65.7088 9.32649L70 15.2038H67.2979L64.2523 10.8973L61.2044 15.2038H58.4999L62.7935 9.32649L58.5947 3.69421H61.3015Z" fill="#5A2989"/>
<path d="M23.3247 13.3086C22.8297 13.3206 22.3371 13.2317 21.8777 13.0468C21.4183 12.8618 20.9991 12.5808 20.6486 12.2278C20.2981 11.8723 20.021 11.4496 19.8339 10.9812C19.6492 10.5153 19.5568 10.0133 19.5663 9.5089C19.5663 7.38809 21.1293 5.59152 23.3223 5.58672C25.5129 5.58672 26.9765 7.38568 26.9765 9.5089C26.9765 11.6321 25.5176 13.3086 23.327 13.3086H23.3247ZM23.6065 3.4563C21.6716 3.4563 20.3928 4.17444 19.5497 5.26487V3.69648H17.2028V20.0001H19.5497V13.6256C20.3928 14.704 21.6716 15.4366 23.6065 15.4366C26.8415 15.4366 29.321 13.0396 29.321 9.49929C29.321 5.959 26.8415 3.4563 23.6065 3.4563Z" fill="#5A2989"/>
<path fill-rule="evenodd" clip-rule="evenodd" d="M5.13428 9.8621C6.12656 9.15356 6.93176 8.20964 7.48118 7.11201V10.1767C7.48118 12.0838 8.51136 13.1862 10.2544 13.1862C11.9974 13.1862 13.4562 12.0862 13.4562 10.1767V3.70142H15.8078V15.2086H13.4467V13.7555C13.0678 14.3439 11.9903 15.4439 9.89203 15.4439C6.78729 15.4439 5.14138 13.4768 5.14138 10.6835L5.13665 9.85969L5.13428 9.8621Z" fill="#5A2989"/>
<path d="M0.00236822 8.86986V11.178C1.97746 11.178 3.87441 10.3902 5.2835 8.98275C5.97502 8.29342 6.52681 7.472 6.90336 6.56171C7.2799 5.65382 7.4741 4.67868 7.4741 3.69153H5.17219C5.17219 4.37124 5.0372 5.04616 4.7767 5.67303C4.51619 6.30231 4.13491 6.87154 3.65653 7.34951C2.68082 8.32465 1.36883 8.86986 0 8.86986H0.00236822Z" fill="#5A2989"/>
</svg>
